<svg id="visual" viewBox="0 0 900 600" width="900" height="600" xmlns="http://www.w3.org/2000/svg" xmlns:xlink="http://www.w3.org/1999/xlink" version="1.1"><rect x="0" y="0" width="900" height="600" fill="#ffffff"></rect><path d="M579 600L580.8 583.3C582.7 566.7 586.3 533.3 575 500C563.7 466.7 537.3 433.3 514 400C490.7 366.7 470.3 333.3 457.3 300C444.3 266.7 438.7 233.3 447 200C455.3 166.7 477.7 133.3 489.2 100C500.7 66.7 501.3 33.3 501.7 16.7L502 0L900 0L900 16.7C900 33.3 900 66.7 900 100C900 133.3 900 166.7 900 200C900 233.3 900 266.7 900 300C900 333.3 900 366.7 900 400C900 433.3 900 466.7 900 500C900 533.3 900 566.7 900 583.3L900 600Z" fill="#cfe2fe" stroke-linecap="round" stroke-linejoin="miter"></path></svg>